<?xml version="1.0" standalone="no"?>
<!DOCTYPE svg PUBLIC "-//W3C//DTD SVG 20010904//EN"
 "http://www.w3.org/TR/2001/REC-SVG-20010904/DTD/svg10.dtd">
<svg version="1.0" xmlns="http://www.w3.org/2000/svg"
 width="275.000000pt" height="183.000000pt" viewBox="0 0 275.000000 183.000000"
 preserveAspectRatio="xMidYMid meet">

<g transform="translate(0.000000,183.000000) scale(0.100000,-0.100000)"
fill="#000000" stroke="none">
<path d="M1493 1786 c6 -39 4 -47 -14 -56 -27 -15 -15 -30 24 -30 18 -1 48 -9
66 -19 27 -15 41 -16 63 -9 16 6 35 7 43 4 9 -3 20 5 29 22 8 15 29 42 46 60
25 26 29 36 20 46 -8 11 -8 15 2 19 7 3 -2 6 -19 6 -30 1 -33 -2 -33 -28 0
-32 -38 -100 -56 -101 -6 0 -17 28 -25 63 l-14 62 -69 3 -69 3 6 -45z"/>
<path d="M1833 1812 c15 -9 25 -22 23 -29 -3 -7 4 -15 14 -18 11 -4 17 -12 13
-21 -3 -9 2 -14 16 -14 29 0 26 -18 -4 -30 -14 -5 -25 -14 -25 -20 0 -5 -6
-10 -14 -10 -8 0 -16 -5 -18 -11 -2 -7 -19 -12 -38 -13 -19 0 -41 -7 -49 -14
-18 -17 -151 -12 -151 6 0 9 -7 9 -30 -3 -36 -18 -36 -19 -10 -73 11 -22 20
-61 20 -87 0 -29 4 -45 13 -45 6 -1 1 -7 -13 -15 -33 -19 -139 -19 -166 0 -19
13 -23 12 -42 -5 -11 -11 -41 -25 -67 -31 -55 -14 -170 -6 -194 14 -31 25
-139 87 -153 87 -7 0 -21 -7 -31 -15 -18 -13 -18 -14 4 -17 27 -4 38 -28 12
-28 -15 0 -15 -2 -3 -10 11 -7 9 -11 -13 -19 -16 -6 -34 -11 -40 -11 -7 0 -6
-4 3 -10 13 -9 13 -11 0 -19 -8 -6 -14 -24 -13 -45 1 -34 0 -35 -70 -58 -53
-17 -71 -20 -75 -10 -2 7 -9 18 -16 25 -6 6 -19 38 -29 69 -20 64 -12 92 30
103 13 3 23 12 23 19 0 8 6 16 12 18 9 3 8 11 -5 31 -21 32 -60 39 -221 35
-86 -2 -121 -7 -124 -16 -2 -7 -19 -19 -38 -27 -18 -7 -46 -25 -61 -39 -15
-14 -30 -26 -34 -26 -3 0 -3 -14 -1 -32 3 -22 0 -35 -14 -45 -10 -7 -12 -13
-6 -13 7 0 12 -4 12 -10 0 -5 -6 -10 -14 -10 -20 0 -77 -58 -64 -66 5 -4 14
-1 18 6 9 14 30 5 30 -12 0 -6 -8 -17 -17 -25 -16 -13 -16 -14 7 -8 14 3 35
11 47 17 29 14 41 3 25 -22 -10 -17 -10 -20 3 -20 14 0 19 11 16 38 -2 16 11
16 27 0 10 -10 15 -10 22 2 5 8 12 11 17 7 4 -5 2 -11 -4 -15 -7 -4 -16 -20
-22 -35 -7 -17 -18 -27 -31 -27 -21 0 -27 -15 -9 -25 6 -4 0 -19 -15 -40 -15
-19 -26 -40 -26 -48 0 -8 -7 -17 -15 -21 -9 -3 -15 0 -15 8 0 8 -6 16 -12 19
-10 3 -8 9 4 24 23 25 23 34 1 26 -16 -6 -16 -5 -4 10 12 15 12 17 -3 11 -10
-4 -15 -13 -11 -24 4 -11 -2 -26 -13 -37 -11 -10 -23 -33 -27 -51 -3 -18 -11
-30 -16 -26 -5 3 -9 -1 -9 -10 0 -8 -3 -23 -6 -33 -3 -10 2 -6 11 10 16 28 34
36 36 15 1 -7 4 -3 7 9 5 15 11 20 20 14 15 -9 18 -38 7 -65 -6 -12 -5 -17 2
-13 6 4 13 -19 17 -61 3 -37 7 -75 8 -84 2 -9 -1 -16 -7 -15 -5 1 -10 14 -10
29 0 34 -7 40 -38 33 -16 -4 -24 -12 -21 -20 3 -7 1 -16 -5 -20 -6 -3 -11 -16
-11 -27 0 -35 -9 -15 -20 42 -7 36 -7 57 0 64 7 7 10 3 10 -12 0 -23 0 -23 25
-5 35 26 38 41 8 35 -14 -3 -29 1 -33 8 -6 9 -10 6 -15 -9 -5 -16 -10 -19 -19
-12 -9 8 -12 1 -10 -28 1 -21 5 -44 9 -51 4 -6 2 -17 -4 -23 -18 -18 -13 -37
11 -34 12 1 23 -2 23 -8 1 -5 4 -19 8 -30 4 -11 9 -34 11 -50 5 -42 13 -59 36
-73 17 -10 20 -10 20 6 0 10 -5 23 -12 30 -8 8 -8 12 -1 12 13 0 43 -61 43
-87 0 -10 -5 -24 -12 -31 -8 -8 -5 -17 13 -37 24 -26 115 -95 124 -95 3 0 18
-9 33 -20 15 -11 65 -33 112 -49 47 -17 79 -30 73 -31 -7 0 -13 -5 -13 -11 0
-7 11 -9 30 -5 100 21 92 21 80 -8 -10 -27 -2 -34 18 -14 9 9 12 9 12 0 0 -12
40 -25 133 -42 31 -7 57 -16 57 -23 0 -6 -10 -21 -22 -34 -36 -39 -11 -38 28
1 45 45 55 45 43 1 -15 -53 -19 -96 -8 -90 5 4 9 13 9 22 0 9 10 35 22 59 16
33 25 41 37 35 14 -7 66 1 159 25 12 4 22 11 22 17 0 6 7 1 16 -11 15 -22 15
-66 -1 -157 -5 -27 -3 -26 15 10 11 22 20 48 20 57 0 9 5 20 10 23 6 3 10 -3
10 -14 0 -26 30 -101 40 -101 4 0 1 20 -8 45 -15 48 -10 69 11 44 6 -8 33 -32
59 -52 l46 -37 611 0 611 0 23 38 c36 60 47 104 49 198 1 69 -4 106 -22 162
-13 43 -28 72 -36 72 -8 0 -14 10 -14 21 0 12 -10 32 -22 43 -13 12 -28 31
-34 42 -6 10 -16 19 -22 19 -6 0 -20 10 -32 23 -11 12 -18 22 -14 22 3 0 -8
16 -25 35 -24 27 -30 42 -26 63 5 25 5 25 -4 5 -16 -35 -24 -27 -17 15 l5 37
-14 -30 c-8 -16 -14 -25 -15 -18 0 6 -3 19 -7 29 -5 12 -3 15 6 9 7 -4 1 13
-13 39 -14 25 -23 46 -20 46 2 0 -1 10 -7 23 -7 12 -12 38 -10 57 1 22 -4 42
-16 55 -20 23 -24 34 -31 83 -5 37 -64 101 -93 102 -9 0 -22 7 -29 15 -7 8
-25 15 -41 15 -16 0 -29 5 -29 11 0 8 -5 8 -15 -1 -13 -10 -15 -9 -14 11 0 30
33 156 42 165 8 9 149 -64 232 -119 129 -86 277 -226 337 -319 17 -27 33 -48
35 -48 2 0 3 26 3 57 l0 56 -77 77 c-100 98 -159 145 -258 207 -83 52 -244
133 -263 133 -6 0 -14 16 -17 35 -3 19 -8 52 -11 73 -6 42 -30 86 -70 132 -27
30 -138 102 -197 128 -41 18 -56 14 -24 -6z m107 -116 c0 -3 -4 -8 -10 -11 -5
-3 -10 -1 -10 4 0 6 5 11 10 11 6 0 10 -2 10 -4z m-265 -107 c11 -17 -1 -21
-15 -4 -8 9 -8 15 -2 15 6 0 14 -5 17 -11z m178 -322 c12 -7 25 -16 29 -21 4
-6 12 -5 20 2 11 9 25 7 61 -6 26 -10 44 -22 40 -26 -4 -4 2 -9 14 -12 22 -6
37 -40 22 -50 -16 -10 2 -25 22 -19 14 5 19 1 19 -12 1 -23 20 -47 45 -57 16
-6 17 -9 5 -16 -9 -6 -14 -21 -12 -40 3 -26 0 -30 -20 -30 -18 0 -20 -2 -8
-10 13 -8 12 -11 -5 -24 -20 -15 -20 -15 -1 -29 19 -14 19 -15 -3 -22 -21 -6
-21 -7 -4 -20 17 -13 17 -14 -3 -9 -28 7 -38 -10 -18 -30 8 -9 12 -16 8 -16
-3 0 -1 -7 6 -15 11 -13 10 -14 -3 -10 -21 9 -30 -10 -17 -35 9 -16 8 -20 -5
-20 -15 0 -19 -11 -16 -38 2 -9 -12 -5 -41 11 -52 29 -111 50 -103 37 9 -14
-9 -12 -23 2 -9 9 -12 8 -12 -4 0 -9 5 -20 10 -23 6 -3 10 -11 10 -16 0 -6 -6
-7 -12 -2 -7 4 -21 6 -30 5 -10 -2 -18 2 -18 7 0 6 -4 11 -10 11 -5 0 -7 -13
-3 -31 4 -21 1 -34 -8 -40 -21 -13 -29 -11 -29 10 0 11 -5 23 -10 26 -6 4 -8
10 -5 15 3 5 -8 16 -25 25 -16 8 -30 12 -30 7 0 -4 -12 -9 -26 -10 -20 -1 -25
2 -20 13 6 18 -5 20 -21 4 -9 -9 -18 -6 -37 8 l-25 20 22 11 c25 12 50 11 90
-6 53 -22 117 -9 117 25 0 9 -13 45 -30 80 -16 34 -30 68 -30 73 0 6 -7 10
-15 10 -8 0 -23 10 -34 22 -26 27 -71 26 -110 -1 -16 -12 -40 -21 -54 -21 -26
0 -44 -25 -24 -34 7 -2 4 -5 -5 -5 -21 -1 -24 -17 -4 -24 8 -3 12 -15 9 -29
-3 -15 5 -33 24 -53 27 -29 39 -65 22 -65 -5 0 -9 7 -9 15 0 8 -5 15 -11 15
-6 0 -8 -9 -4 -20 5 -15 3 -18 -8 -14 -20 7 -105 -80 -88 -90 4 -3 13 6 19 19
7 14 17 25 23 25 12 0 4 -13 -34 -57 -16 -18 -18 -25 -7 -38 7 -8 10 -22 6
-30 -3 -9 -2 -14 3 -11 13 8 20 -57 8 -72 -5 -7 -12 -10 -15 -7 -3 2 1 12 8
20 11 14 10 17 -8 22 -12 3 -29 21 -38 40 l-17 34 -23 -35 c-14 -19 -29 -47
-34 -61 -6 -15 -17 -25 -29 -25 -18 0 -19 3 -10 30 6 17 16 27 22 23 6 -3 7
-1 3 5 -23 38 -48 -11 -46 -91 0 -20 -4 -37 -8 -37 -11 0 -24 71 -19 103 2 12
2 16 0 9 -3 -9 -14 -12 -28 -10 -21 4 -24 1 -27 -41 -2 -25 0 -47 4 -49 4 -2
8 -10 8 -17 0 -9 -13 -2 -31 16 -31 30 -31 32 -21 82 8 43 8 49 -3 34 -11 -16
-14 -11 -17 40 -5 78 14 194 43 273 51 136 153 251 290 326 71 39 86 45 174
64 22 4 54 13 70 18 43 14 143 13 168 -1z m-1423 -67 c0 -28 -2 -30 -21 -20
-20 11 -20 12 -3 31 23 25 24 24 24 -11z m-65 -100 c-10 -16 5 -33 19 -21 6 5
18 6 25 2 17 -11 5 -51 -14 -51 -8 0 -19 -9 -25 -20 -12 -23 -40 -26 -59 -7
-10 10 -15 8 -27 -7 -15 -21 -31 -16 -18 6 5 7 10 24 12 38 4 33 15 43 46 43
15 0 26 5 26 13 0 8 5 14 11 14 5 0 7 -4 4 -10z m-150 -70 c-3 -5 -11 -10 -16
-10 -6 0 -7 5 -4 10 3 6 11 10 16 10 6 0 7 -4 4 -10z m1444 -57 c-10 -11 -10
-16 0 -23 10 -5 10 -9 2 -15 -7 -3 -9 -16 -6 -28 6 -21 5 -21 -14 2 -25 28
-26 48 -5 72 20 22 41 14 23 -8z m-1338 -56 c-13 -13 -30 0 -28 23 1 18 2 18
19 3 12 -10 15 -20 9 -26z m-41 -2 c0 -8 -4 -15 -10 -15 -5 0 -7 7 -4 15 4 8
8 15 10 15 2 0 4 -7 4 -15z m35 -75 c3 -5 2 -10 -4 -10 -5 0 -13 5 -16 10 -3
6 -2 10 4 10 5 0 13 -4 16 -10z m1398 -130 c-3 -11 -7 -20 -9 -20 -2 0 -4 9
-4 20 0 11 4 20 9 20 5 0 7 -9 4 -20z m167 -87 c0 -7 -9 -2 -24 13 -9 8 -16
20 -16 26 0 6 9 1 20 -12 11 -13 20 -25 20 -27z m-189 -36 c-10 -9 -11 -8 -5
6 3 10 9 15 12 12 3 -3 0 -11 -7 -18z m-217 -42 c-6 -16 -24 -21 -24 -7 0 11
11 22 21 22 5 0 6 -7 3 -15z m40 -32 c-17 -34 -19 -36 -22 -15 -2 13 4 32 14
43 25 28 29 15 8 -28z m136 -23 c0 -5 -4 -10 -10 -10 -5 0 -10 5 -10 10 0 6 5
10 10 10 6 0 10 -4 10 -10z m-1385 -10 c3 -5 1 -10 -4 -10 -6 0 -11 5 -11 10
0 6 2 10 4 10 3 0 8 -4 11 -10z m1296 -23 c-8 -8 -11 -7 -11 4 0 20 13 34 18
19 3 -7 -1 -17 -7 -23z"/>
<path d="M1585 781 c-3 -5 -1 -12 5 -16 5 -3 10 1 10 9 0 18 -6 21 -15 7z"/>
<path d="M1140 460 c0 -5 5 -10 10 -10 6 0 10 5 10 10 0 6 -4 10 -10 10 -5 0
-10 -4 -10 -10z"/>
<path d="M321 1044 c0 -11 3 -14 6 -6 3 7 2 16 -1 19 -3 4 -6 -2 -5 -13z"/>
<path d="M198 1343 c-10 -2 -18 -9 -18 -14 0 -13 13 -11 36 6 19 14 14 17 -18
8z"/>
<path d="M152 1205 c-11 -12 -10 -15 3 -15 8 0 15 7 15 15 0 18 -2 18 -18 0z"/>
<path d="M81 984 c0 -11 3 -14 6 -6 3 7 2 16 -1 19 -3 4 -6 -2 -5 -13z"/>
<path d="M68 930 c-7 -24 -3 -38 8 -28 3 4 4 17 2 30 l-3 23 -7 -25z"/>
<path d="M2380 925 c0 -5 5 -17 10 -25 5 -8 10 -10 10 -5 0 6 -5 17 -10 25 -5
8 -10 11 -10 5z"/>
<path d="M180 543 c0 -5 11 -20 25 -33 21 -20 25 -21 31 -7 7 19 -4 40 -17 31
-5 -3 -16 0 -24 6 -8 7 -15 8 -15 3z"/>
</g>
</svg>
